<svg xmlns="http://www.w3.org/2000/svg" viewBox="0 0 100 100"><defs><style>.cls-1{fill:#e6e6e6;}.cls-1,.cls-2,.cls-3,.cls-4{stroke:#000;stroke-miterlimit:10;stroke-width:0.1px;}.cls-2{fill:#b3b3b3;}.cls-3{fill:#f2f2f2;}.cls-4{fill:#ccc;}</style></defs><g id="Calque_2_-_copie" data-name="Calque 2 - copie"><polygon class="cls-1" points="18.9 33.16 18.9 70.4 11.15 66.06 11.15 37.5 18.9 33.16"/><polygon class="cls-1" points="18.9 70.4 18.9 78.56 11.15 74.22 11.15 66.06 18.9 70.4"/><polygon class="cls-1" points="92.83 38.37 92.8 64.39 83.8 69.44 83.8 33.32 92.83 38.37"/><polygon class="cls-1" points="92.83 29.6 92.83 38.37 83.8 33.32 83.8 24.54 92.83 29.6"/><polygon class="cls-1" points="83.8 69.44 83.8 78.34 58.4 92.57 50.49 88.14 83.8 69.44"/><polygon class="cls-2" points="92.8 64.39 92.8 73.29 83.8 78.34 83.8 69.44 92.8 64.39"/><polygon class="cls-1" points="59.04 10.62 51.19 15.05 43.47 10.68 51.32 6.31 59.04 10.62"/><polygon class="cls-1" points="51.19 15.05 18.9 33.16 18.9 24.48 43.47 10.68 51.19 15.05"/><polygon class="cls-3" points="18.9 24.48 18.9 33.16 11.15 37.5 11.15 28.85 18.9 24.48"/><polygon class="cls-1" points="50.49 88.14 43.21 92.23 35.05 87.64 30.1 84.82 18.9 78.56 18.9 70.4 20.91 71.55 25.82 74.31 30.1 76.7 35.05 79.49 50.49 88.14"/><polygon class="cls-1" points="58.4 92.57 51.13 96.67 43.21 92.23 50.49 88.14 58.4 92.57"/><polygon class="cls-1" points="83.8 24.54 83.8 33.32 51.19 15.05 59.04 10.62 83.8 24.54"/><path class="cls-4" d="M75.28,37.54V44a.61.61,0,0,1-.32.53l-5.36,3-.35.18v-.4a.71.71,0,0,1-.29.59L56,55.15a.73.73,0,0,1-.61,0l-.09,0-4.82-2.89-.7-.43L69.25,40.91v.41a.56.56,0,0,1,.35-.56Z"/><path class="cls-1" d="M75.28,44.33V73.84l-5.74-3.38a.65.65,0,0,1-.29-.55V48.05a.65.65,0,0,1,.35-.56l5.36-3Z"/><path class="cls-2" d="M31.15,41.13v6.54l-.29-.18a.69.69,0,0,1,.29.56V68.7a.63.63,0,0,1-.32.52l-5.68,3.2V37.19l5.71,3.41A.7.7,0,0,1,31.15,41.13Z"/><path class="cls-1" d="M55.66,55.3,50,58.46a.57.57,0,0,1-.64,0l-5.52-3.28.35-.19a.57.57,0,0,1-.64,0L31.47,47.86a.71.71,0,0,1-.32-.53V40.76L49.79,51.83l.7.43,4.82,2.89.09,0Z"/><path class="cls-1" d="M47.87,38.68l7.79,4.37-4.6,2.64a.67.67,0,0,1-.67,0l-8.52-4.78-4.94-2.79-4.12-2.29L27.87,33l4.94-2.76,17.58-9.92h.07l4.94,2.79L37.76,33l4.11,2.32,17.65-9.92,4.94,2.82L47.87,37.6A.6.6,0,0,0,47.87,38.68Z"/></g></svg>